<svg width="28" height="29" viewBox="0 0 28 29" fill="none" xmlns="http://www.w3.org/2000/svg">
<g clip-path="url(#clip0_2_19)">
<path d="M20.1872 11.75C20.0184 11.7486 19.855 11.8086 19.7277 11.9187C19.6004 12.0287 19.5181 12.1813 19.4962 12.3476L18.9155 19.7176L18.3213 12.334C18.2661 12.1988 18.169 12.0846 18.0441 12.008C17.9192 11.9313 17.7729 11.8961 17.6265 11.9076C17.4802 11.9191 17.3413 11.9766 17.23 12.0718C17.1188 12.1671 17.041 12.295 17.0078 12.4371L18.2452 28.1316C18.2905 28.2692 18.3784 28.389 18.4964 28.474C18.6143 28.559 18.7563 28.6047 18.9019 28.6047C19.0476 28.6047 19.1896 28.559 19.3075 28.474C19.4255 28.389 19.5134 28.2692 19.5587 28.1316L20.795 12.4301C20.7947 12.2626 20.7327 12.101 20.6207 11.9757C20.5087 11.8504 20.3546 11.7702 20.1872 11.75Z" fill="#B2B2BC"/>
<path d="M23.5086 2.59514C23.4048 2.56142 23.2945 2.5526 23.1867 2.56941C23.0788 2.58622 22.9765 2.62817 22.8881 2.69184C22.7998 2.75551 22.7278 2.83908 22.6782 2.93571C22.6286 3.03233 22.6028 3.13926 22.6028 3.24773C22.6028 3.3562 22.6286 3.46312 22.6782 3.55975C22.7278 3.65637 22.7998 3.73994 22.8881 3.80361C22.9765 3.86728 23.0788 3.90924 23.1867 3.92604C23.2945 3.94285 23.4048 3.93403 23.5086 3.90031C24.207 3.90031 24.8768 4.17601 25.3707 4.66676C25.8645 5.15751 26.142 5.82311 26.142 6.51714C26.142 7.21116 25.8645 7.87677 25.3707 8.36752C24.8768 8.85827 24.207 9.13397 23.5086 9.13397H21.0549L21.5182 3.18717C21.5573 2.7148 21.4901 2.2397 21.3214 1.79634C21.1528 1.35299 20.887 0.952486 20.5432 0.623889C20.096 0.222322 19.5147 0 18.912 0C18.3093 0 17.728 0.222322 17.2808 0.623889C16.7297 1.14525 16.382 1.84353 16.2992 2.59514H13.63C13.1118 2.59496 12.6144 2.39257 12.2449 2.03156C11.8754 1.67055 11.6633 1.17978 11.6543 0.664926C11.609 0.527337 11.5211 0.407494 11.4032 0.322521C11.2852 0.237548 11.1433 0.191793 10.9976 0.191793C10.8519 0.191793 10.71 0.237548 10.592 0.322521C10.4741 0.407494 10.3862 0.527337 10.3409 0.664926C10.3499 1.52612 10.7005 2.34899 11.3166 2.95478C11.9326 3.56057 12.7643 3.90035 13.631 3.90031H16.3335L16.7414 9.13397H6.37384C4.66499 9.18954 3.04483 9.90317 1.85578 11.124C0.666727 12.3449 0.00195313 13.9773 0.00195312 15.6763C0.00195313 17.3753 0.666727 19.0077 1.85578 20.2286C3.04483 21.4494 4.66499 22.163 6.37384 22.2186H13.6315C13.8057 22.2186 13.9727 22.1499 14.0959 22.0275C14.2191 21.9051 14.2883 21.7391 14.2883 21.566C14.2883 21.393 14.2191 21.227 14.0959 21.1046C13.9727 20.9822 13.8057 20.9135 13.6315 20.9135H6.38744C4.99057 20.9135 3.65093 20.3621 2.66319 19.3806C1.67546 18.3991 1.12056 17.0679 1.12056 15.6798C1.12056 14.2917 1.67546 12.9605 2.66319 11.979C3.65093 10.9975 4.99057 10.4461 6.38744 10.4461H23.5106C24.5283 10.4019 25.4896 9.96902 26.1941 9.23773C26.8985 8.50645 27.2917 7.5332 27.2917 6.52089C27.2917 5.50858 26.8985 4.53534 26.1941 3.80405C25.4896 3.07277 24.5283 2.63988 23.5106 2.59565L23.5086 2.59514ZM17.654 3.90031H18.8964C19.0706 3.90031 19.2376 3.83155 19.3608 3.70917C19.4839 3.58679 19.5531 3.4208 19.5531 3.24773C19.5531 3.07465 19.4839 2.90866 19.3608 2.78628C19.2376 2.6639 19.0706 2.59514 18.8964 2.59514H17.6197C17.6962 2.20294 17.8916 1.84337 18.1797 1.56473C18.3788 1.39181 18.6342 1.29651 18.8987 1.29651C19.1631 1.29651 19.4185 1.39181 19.6176 1.56473C19.8231 1.75853 19.983 1.99511 20.0858 2.25752C20.1885 2.51994 20.2316 2.80169 20.2118 3.08258L19.7349 9.13347H18.0619L17.654 3.90031Z" fill="#B2B2BC"/>
<path d="M14.0225 16.336H6.66958C6.46066 16.3358 6.25375 16.3765 6.06068 16.4558C5.8676 16.5351 5.69215 16.6514 5.54435 16.7982C5.39655 16.9449 5.2793 17.1191 5.19931 17.3109C5.11931 17.5027 5.07814 17.7083 5.07814 17.9159C5.07732 18.1226 5.11785 18.3274 5.1974 18.5183C5.27694 18.7093 5.3939 18.8827 5.54147 19.0284L6.58497 20.0653C6.71135 20.1863 6.87935 20.255 7.05485 20.2574H13.6352C13.8084 20.2534 13.9738 20.1848 14.0985 20.0653L15.1405 19.0284C15.3644 18.8088 15.5174 18.5278 15.5799 18.2214C15.6425 17.9151 15.6117 17.5971 15.4915 17.3082C15.3714 17.0192 15.1673 16.7724 14.9054 16.5993C14.6435 16.4261 14.3355 16.3344 14.0209 16.336H14.0225ZM14.2158 18.108L13.3657 18.9528H7.32227L6.47216 18.108C6.42218 18.0559 6.39269 17.9877 6.38906 17.9159C6.38906 17.843 6.41819 17.7731 6.47005 17.7216C6.5219 17.6701 6.59222 17.6411 6.66555 17.6411H14.0184C14.0544 17.6411 14.09 17.6483 14.1232 17.6621C14.1563 17.676 14.1864 17.6964 14.2115 17.722C14.2366 17.7476 14.2563 17.778 14.2694 17.8113C14.2825 17.8445 14.2888 17.8801 14.2879 17.9159C14.2877 17.9864 14.2622 18.0546 14.2158 18.108Z" fill="#B2B2BC"/>
<path d="M14.0946 25.0281C13.9699 24.9086 13.8045 24.84 13.6313 24.8359H7.05098C6.87547 24.8384 6.70748 24.9071 6.5811 25.0281L5.53759 26.079C5.32128 26.301 5.17522 26.5812 5.11749 26.8848C5.05976 27.1884 5.09289 27.5022 5.21279 27.7873C5.33269 28.0724 5.53409 28.3163 5.79206 28.4888C6.05003 28.6613 6.35325 28.7549 6.66419 28.7579H14.0171C14.3289 28.7568 14.6334 28.6641 14.8924 28.4916C15.1514 28.3191 15.3534 28.0744 15.473 27.7883C15.5926 27.5021 15.6244 27.1873 15.5646 26.8832C15.5048 26.5791 15.3559 26.2994 15.1366 26.079L14.0946 25.0281ZM14.0186 27.4528H6.66571C6.61147 27.454 6.5581 27.439 6.5126 27.4097C6.4671 27.3803 6.43157 27.338 6.41068 27.2882C6.38978 27.2385 6.38448 27.1836 6.39548 27.1308C6.40648 27.078 6.43326 27.0298 6.47231 26.9924L7.32243 26.1476H13.3659L14.212 26.9929C14.2477 27.0315 14.2715 27.0795 14.2807 27.1312C14.2898 27.1829 14.2838 27.2361 14.2635 27.2845C14.2432 27.333 14.2093 27.3746 14.1659 27.4045C14.1225 27.4344 14.0714 27.4508 14.0186 27.4528Z" fill="#B2B2BC"/>
<path d="M13.6321 24.1862C13.773 24.1428 13.8962 24.0557 13.9838 23.9377C14.0713 23.8197 14.1185 23.677 14.1185 23.5304C14.1185 23.3838 14.0713 23.241 13.9838 23.123C13.8962 23.005 13.773 22.9179 13.6321 22.8745H7.05177C6.94838 22.8427 6.8389 22.8354 6.73217 22.8533C6.62543 22.8712 6.52442 22.9138 6.43728 22.9776C6.35014 23.0415 6.27931 23.1247 6.2305 23.2207C6.18168 23.3167 6.15625 23.4228 6.15625 23.5304C6.15625 23.6379 6.18168 23.744 6.2305 23.84C6.27931 23.936 6.35014 24.0193 6.43728 24.0831C6.52442 24.1469 6.62543 24.1895 6.73217 24.2074C6.8389 24.2253 6.94838 24.218 7.05177 24.1862H13.6321Z" fill="#B2B2BC"/>
</g>
<defs>
<clipPath id="clip0_2_19">
<rect width="27.2973" height="28.7571" fill="white"/>
</clipPath>
</defs>
</svg>
