<svg width="30" height="29" viewBox="0 0 30 29" fill="none" xmlns="http://www.w3.org/2000/svg">
<g clip-path="url(#clip0_2_26)">
<path d="M4.10922 12.807C3.51203 13.0345 3.01268 13.4607 2.69621 14.0129C2.37974 14.5652 2.26573 15.2094 2.3736 15.8358C2.48147 16.4623 2.80455 17.0322 3.28781 17.4484C3.77107 17.8647 4.38462 18.1017 5.02394 18.1189C5.66327 18.1361 6.28883 17.9326 6.79407 17.5429C7.29932 17.1532 7.653 16.6016 7.79487 15.9819C7.93674 15.3622 7.85802 14.7128 7.57213 14.1443C7.28624 13.5758 6.81085 13.1234 6.22695 12.8641C5.89506 12.7167 5.53719 12.6358 5.1738 12.626C4.81042 12.6162 4.44865 12.6777 4.10922 12.807ZM5.60246 16.6464C5.31657 16.7467 5.00544 16.7509 4.71697 16.6582C4.42849 16.5655 4.17868 16.3812 4.00599 16.1335C3.8333 15.8859 3.74732 15.5888 3.76128 15.2878C3.77524 14.9869 3.88837 14.6988 4.08324 14.4681C4.27812 14.2373 4.54394 14.0766 4.83977 14.0106C5.1356 13.9447 5.44503 13.9773 5.72042 14.1033C5.99581 14.2293 6.22188 14.4417 6.36382 14.7079C6.50576 14.9741 6.5557 15.2793 6.50595 15.5765C6.46534 15.8189 6.36005 16.046 6.20105 16.2342C6.04205 16.4224 5.83516 16.5647 5.60195 16.6464H5.60246Z" fill="#B2B2BC"/>
<path d="M12.5421 21.2058C11.9439 21.4337 11.4436 21.8606 11.1266 22.4139C10.8095 22.9672 10.6953 23.6126 10.8034 24.2401C10.9114 24.8677 11.2351 25.4386 11.7192 25.8557C12.2034 26.2727 12.818 26.5101 13.4585 26.5273C14.099 26.5446 14.7257 26.3407 15.2319 25.9503C15.738 25.5599 16.0924 25.0073 16.2345 24.3864C16.3766 23.7656 16.2978 23.115 16.0114 22.5455C15.7249 21.976 15.2487 21.5227 14.6637 21.263C14.3312 21.1153 13.9727 21.0343 13.6087 21.0244C13.2446 21.0146 12.8822 21.0763 12.5421 21.2058ZM14.0381 25.0522C13.7517 25.1527 13.44 25.1568 13.151 25.064C12.862 24.9711 12.6117 24.7864 12.4387 24.5384C12.2657 24.2903 12.1796 23.9926 12.1936 23.6911C12.2075 23.3896 12.3209 23.1011 12.5161 22.8699C12.7113 22.6387 12.9777 22.4776 13.274 22.4116C13.5704 22.3456 13.8804 22.3782 14.1563 22.5044C14.4322 22.6306 14.6586 22.8435 14.8008 23.1102C14.943 23.3768 14.9931 23.6826 14.9432 23.9803C14.9025 24.2231 14.7971 24.4507 14.6378 24.6392C14.4785 24.8277 14.2712 24.9704 14.0376 25.0522H14.0381Z" fill="#B2B2BC"/>
<path d="M16.0141 14.8455C16.37 14.7087 16.5469 14.311 16.4093 13.9574C16.2716 13.6037 15.8714 13.4279 15.5155 13.5648C15.1596 13.7016 14.9827 14.0992 15.1204 14.4529C15.2581 14.8065 15.6582 14.9823 16.0141 14.8455Z" fill="#B2B2BC"/>
<path d="M28.3105 6.43991L9.64777 13.6243C9.30169 12.738 8.69895 11.9735 7.91573 11.4276C7.13251 10.8816 6.20398 10.5786 5.2475 10.5569C4.29103 10.5352 3.34956 10.7958 2.54209 11.3057C1.73462 11.8156 1.09741 12.552 0.711006 13.4217C0.3246 14.2914 0.206346 15.2554 0.371192 16.1918C0.536039 17.1283 0.976583 17.9952 1.63714 18.6829C2.2977 19.3706 3.14861 19.8483 4.08232 20.0556C5.01603 20.2629 5.99062 20.1904 6.88289 19.8474L12.1155 17.8226C12.6089 17.6323 13.1354 17.5411 13.6645 17.554C14.1935 17.567 14.7148 17.6839 15.1982 17.8981C15.3664 17.9668 15.5552 17.9668 15.7235 17.8981L26.0432 13.9421C27.4107 13.4156 28.5118 12.3709 29.1042 11.0377C29.6965 9.70458 29.7317 8.19218 29.2019 6.83327C29.1359 6.66386 29.005 6.52735 28.8379 6.45362C28.6709 6.3799 28.4812 6.37497 28.3105 6.43991ZM25.5456 12.663L15.4676 16.5294C14.2252 16.0485 12.8463 16.0485 11.6038 16.5294L6.34351 18.5627C5.7059 18.8081 5.00937 18.86 4.34206 18.7119C3.67475 18.5637 3.06665 18.2222 2.59473 17.7306C2.1228 17.2389 1.80825 16.6192 1.69089 15.9498C1.57353 15.2805 1.65863 14.5916 1.93542 13.9703C2.21221 13.349 2.66825 12.8233 3.24583 12.4596C3.82341 12.096 4.49657 11.9107 5.18012 11.9274C5.86367 11.944 6.52689 12.1618 7.08585 12.5531C7.64481 12.9444 8.07439 13.4917 8.32022 14.1258C8.39243 14.3032 8.44577 14.4877 8.47937 14.6762C8.49683 14.7749 8.53715 14.8681 8.59714 14.9485C8.65713 15.029 8.73515 15.0944 8.825 15.1397C8.91486 15.185 9.0141 15.2089 9.11486 15.2095C9.21562 15.2101 9.31514 15.1874 9.40553 15.1432L28.11 7.9923C28.3065 8.94727 28.1559 9.94051 27.6851 10.7956C27.2143 11.6507 26.4538 12.3123 25.5385 12.663H25.5456Z" fill="#B2B2BC"/>
<path d="M14.6245 10.0233L17.4393 3.84176C17.8489 2.95494 18.5549 2.23638 19.4372 1.80816C20.3196 1.37994 21.3239 1.26846 22.2796 1.49266L19.7685 6.98756C19.7304 7.07 19.7091 7.15913 19.7059 7.2498C19.7026 7.34047 19.7175 7.43088 19.7496 7.5158C19.7817 7.60073 19.8305 7.67848 19.893 7.74458C19.9556 7.81067 20.0307 7.86379 20.114 7.90087C20.2871 7.96973 20.4803 7.96973 20.6534 7.90087C20.8224 7.83591 20.9589 7.70759 21.0336 7.54355L23.8469 1.36205C23.8821 1.27826 23.9002 1.18836 23.9002 1.09756C23.9002 1.00676 23.8821 0.916868 23.8469 0.833076C23.8145 0.748037 23.7655 0.670229 23.7026 0.604166C23.6398 0.538103 23.5643 0.4851 23.4807 0.448234C22.1341 -0.122081 20.617 -0.149163 19.2507 0.372723C17.8843 0.894609 16.7761 1.92448 16.1606 3.24422L13.3474 9.42573C13.2713 9.59164 13.2647 9.78078 13.3289 9.95154C13.3932 10.1223 13.5231 10.2607 13.6901 10.3363C13.857 10.4119 14.0474 10.4185 14.2192 10.3546C14.3911 10.2907 14.5303 10.1616 14.6064 9.99574L14.6245 10.0233Z" fill="#B2B2BC"/>
<path d="M15.6256 19.5103C15.3751 19.4027 15.1162 19.3153 14.8516 19.2491C14.6822 19.2251 14.5099 19.2643 14.368 19.3593C14.2261 19.4542 14.1247 19.5981 14.0834 19.763C14.0421 19.928 14.0638 20.1023 14.1444 20.2523C14.225 20.4022 14.3587 20.5171 14.5197 20.5748C14.7096 20.6166 14.8951 20.6765 15.0737 20.7534C15.4922 20.928 15.8712 21.1843 16.1883 21.5071C16.5053 21.8298 16.7541 22.2125 16.9197 22.6324C17.0853 23.0524 17.1645 23.5011 17.1525 23.9519C17.1405 24.4028 17.0376 24.8468 16.8499 25.2574C16.4661 26.0922 15.7692 26.7447 14.9078 27.0758C14.0465 27.4069 13.089 27.3903 12.2398 27.0295C11.8252 26.8522 11.4504 26.5945 11.1373 26.2715C10.8241 25.9485 10.579 25.5667 10.4162 25.1484C10.2533 24.7301 10.1761 24.2838 10.189 23.8354C10.2019 23.3871 10.3046 22.9459 10.4912 22.5375L11.3554 20.5733C11.4315 20.4074 11.4381 20.2182 11.3738 20.0475C11.3096 19.8767 11.1797 19.7383 11.0127 19.6627C10.8457 19.5871 10.6554 19.5805 10.4836 19.6444C10.3117 19.7083 10.1724 19.8373 10.0964 20.0033L9.20496 21.947C8.94305 22.521 8.79898 23.1411 8.78118 23.7711C8.76338 24.4011 8.8722 25.0283 9.10129 25.6159C9.33038 26.2036 9.67513 26.74 10.1154 27.1937C10.5556 27.6474 11.0825 28.0092 11.6651 28.2581C12.8464 28.7627 14.1797 28.7871 15.3789 28.3262C16.5781 27.8652 17.5477 26.9556 18.0798 25.7924C18.343 25.2189 18.4883 24.5989 18.5071 23.9688C18.5259 23.3387 18.4178 22.7113 18.1891 22.1233C17.9605 21.5353 17.616 20.9986 17.1758 20.5447C16.7356 20.0909 16.2085 19.729 15.6256 19.4803V19.5103Z" fill="#B2B2BC"/>
</g>
<defs>
<clipPath id="clip0_2_26">
<rect width="29.28" height="28.658" fill="white" transform="translate(0.296875)"/>
</clipPath>
</defs>
</svg>
