<svg width="29" height="28" viewBox="0 0 29 28" fill="none" xmlns="http://www.w3.org/2000/svg">
<g clip-path="url(#clip0_2_12)">
<path d="M8.11203 21.8478C8.11203 21.4769 8.00132 21.1143 7.7939 20.8059C7.58648 20.4975 7.29167 20.2571 6.94676 20.1153C6.60186 19.9734 6.22235 19.9363 5.85626 20.0088C5.49016 20.0813 5.15392 20.26 4.89007 20.5224C4.62622 20.7848 4.44661 21.1191 4.37397 21.4829C4.30132 21.8468 4.33891 22.2238 4.48197 22.5665C4.62503 22.9091 4.86714 23.2018 5.17766 23.4077C5.48819 23.6136 5.85318 23.7233 6.22647 23.723C6.72669 23.7226 7.20629 23.5249 7.55986 23.1732C7.91342 22.8216 8.11203 22.3449 8.11203 21.8478ZM5.59392 21.8478C5.59393 21.7244 5.63073 21.6036 5.69969 21.5009C5.76866 21.3982 5.86669 21.3181 5.98142 21.2707C6.09616 21.2233 6.22245 21.2107 6.34437 21.2345C6.46629 21.2584 6.57838 21.3176 6.66649 21.4046C6.7546 21.4917 6.81478 21.6027 6.83945 21.7238C6.86412 21.8448 6.85216 21.9703 6.80509 22.0846C6.75803 22.1989 6.67795 22.2967 6.57497 22.3658C6.472 22.4349 6.35073 22.4722 6.22647 22.4729C6.05964 22.4729 5.89965 22.407 5.78169 22.2898C5.66372 22.1726 5.59745 22.0136 5.59745 21.8478H5.59392Z" fill="#B2B2BC"/>
<path d="M14.2063 7.62539L17.918 3.93711C18.0445 3.82511 18.2081 3.76323 18.3775 3.76323C18.547 3.76323 18.7106 3.82511 18.8371 3.93711L24.2561 9.3219C24.3165 9.38186 24.3643 9.45304 24.397 9.5314C24.4297 9.60976 24.4465 9.69374 24.4465 9.77856C24.4465 9.86338 24.4297 9.94736 24.397 10.0257C24.3643 10.1041 24.3165 10.1753 24.2561 10.2352L22.7205 11.7601L17.9789 7.05588C17.8595 6.94914 17.7034 6.89187 17.5428 6.89581C17.3822 6.89975 17.2292 6.9646 17.1152 7.07707C17.0012 7.18953 16.9348 7.34109 16.9296 7.50065C16.9245 7.66021 16.981 7.81568 17.0875 7.93517L21.8306 12.6444L20.5449 13.9235C20.4283 14.0411 20.3633 14.1999 20.3642 14.365C20.3652 14.5301 20.4319 14.6881 20.5498 14.8044C20.6677 14.9207 20.8272 14.9858 20.9934 14.9855C21.1595 14.9852 21.3188 14.9195 21.4363 14.8028L25.148 11.1145C25.5037 10.7583 25.7032 10.2768 25.7032 9.77506C25.7032 9.27327 25.5037 8.79181 25.148 8.43561L19.729 3.05082C19.3654 2.70723 18.8828 2.51563 18.3811 2.51562C17.8793 2.51563 17.3967 2.70723 17.0331 3.05082L13.3214 6.7391C13.214 6.85781 13.1564 7.01286 13.1603 7.17245C13.1643 7.33205 13.2296 7.48408 13.3428 7.59738C13.4559 7.71068 13.6085 7.77665 13.769 7.78177C13.9296 7.78688 14.0861 7.73075 14.2063 7.62489V7.62539Z" fill="#B2B2BC"/>
<path d="M26.3244 16.2301H13.758C13.6703 16.2208 13.5816 16.23 13.4977 16.257C13.4138 16.284 13.3365 16.3282 13.2709 16.3869C13.2053 16.4455 13.1529 16.5171 13.117 16.5972C13.0811 16.6773 13.0625 16.764 13.0625 16.8516C13.0625 16.9393 13.0811 17.026 13.117 17.106C13.1529 17.1861 13.2053 17.2578 13.2709 17.3164C13.3365 17.375 13.4138 17.4192 13.4977 17.4463C13.5816 17.4733 13.6703 17.4824 13.758 17.4732H26.3244C26.4912 17.4732 26.6512 17.539 26.7692 17.6562C26.8871 17.7735 26.9534 17.9325 26.9534 18.0982V25.5919C26.9535 25.6741 26.9374 25.7555 26.9058 25.8314C26.8743 25.9074 26.828 25.9764 26.7695 26.0345C26.7111 26.0927 26.6417 26.1388 26.5653 26.1703C26.489 26.2018 26.4071 26.218 26.3244 26.218H24.4444V19.3483C24.4444 19.2662 24.4281 19.1848 24.3965 19.109C24.3648 19.0331 24.3184 18.9641 24.26 18.906C24.2015 18.8479 24.1321 18.8018 24.0558 18.7704C23.9794 18.739 23.8975 18.7228 23.8148 18.7228C23.7322 18.7228 23.6503 18.739 23.5739 18.7704C23.4976 18.8018 23.4282 18.8479 23.3697 18.906C23.3112 18.9641 23.2649 19.0331 23.2332 19.109C23.2016 19.1848 23.1853 19.2662 23.1853 19.3483V26.218H20.6672V19.3483C20.6672 19.1824 20.6009 19.0233 20.4828 18.906C20.3648 18.7887 20.2046 18.7228 20.0377 18.7228C19.8707 18.7228 19.7106 18.7887 19.5925 18.906C19.4745 19.0233 19.4082 19.1824 19.4082 19.3483V26.218H16.9031V19.3483C16.9031 19.1824 16.8368 19.0233 16.7188 18.906C16.6007 18.7887 16.4406 18.7228 16.2736 18.7228C16.1067 18.7228 15.9465 18.7887 15.8285 18.906C15.7104 19.0233 15.6441 19.1824 15.6441 19.3483V26.218H13.758C13.5911 26.218 13.4309 26.2839 13.3129 26.4012C13.1948 26.5185 13.1285 26.6776 13.1285 26.8435C13.1285 27.0094 13.1948 27.1685 13.3129 27.2859C13.4309 27.4032 13.5911 27.4691 13.758 27.4691H26.3244C26.8249 27.4691 27.3049 27.2715 27.6588 26.9199C28.0126 26.5682 28.2115 26.0912 28.2115 25.5939V18.0982C28.2115 17.8523 28.1626 17.6088 28.0677 17.3817C27.9728 17.1546 27.8337 16.9483 27.6583 16.7748C27.483 16.6012 27.2749 16.4637 27.046 16.3703C26.8171 16.2768 26.5719 16.2291 26.3244 16.2301Z" fill="#B2B2BC"/>
<path d="M14.26 9.86368C14.1435 9.9807 14.0781 10.1387 14.0781 10.3033C14.0781 10.468 14.1435 10.6259 14.26 10.743L18.3449 14.8021C18.4029 14.8606 18.472 14.9072 18.5482 14.9391C18.6243 14.971 18.7061 14.9877 18.7888 14.9881C18.8714 14.9886 18.9534 14.9728 19.0299 14.9417C19.1064 14.9107 19.176 14.8649 19.2347 14.807C19.2934 14.7491 19.34 14.6803 19.3718 14.6045C19.4036 14.5287 19.4201 14.4474 19.4203 14.3652C19.4204 14.2831 19.4042 14.2017 19.3727 14.1258C19.3411 14.0499 19.2948 13.9809 19.2363 13.9228L15.1514 9.86368C15.093 9.80536 15.0235 9.75909 14.947 9.72751C14.8706 9.69594 14.7885 9.67969 14.7057 9.67969C14.6229 9.67969 14.5409 9.69594 14.4644 9.72751C14.3879 9.75909 14.3185 9.80536 14.26 9.86368Z" fill="#B2B2BC"/>
<path d="M9.99666 0H2.45543C1.95495 0 1.47496 0.197562 1.12107 0.549225C0.767175 0.900888 0.568359 1.37784 0.568359 1.87517V15.6139C0.568359 15.7797 0.634631 15.9387 0.752596 16.0559C0.870561 16.1731 1.03056 16.239 1.19738 16.239H8.73861C8.90557 16.239 9.06569 16.1731 9.18375 16.0557C9.30181 15.9384 9.36814 15.7793 9.36814 15.6134C9.36814 15.4475 9.30181 15.2884 9.18375 15.1711C9.06569 15.0538 8.90557 14.9879 8.73861 14.9879H1.82741V12.4856H8.73861C8.90557 12.4856 9.06569 12.4197 9.18375 12.3024C9.30181 12.1851 9.36814 12.026 9.36814 11.8601C9.36814 11.6942 9.30181 11.535 9.18375 11.4177C9.06569 11.3004 8.90557 11.2345 8.73861 11.2345H1.82741V8.74379H8.73861C8.90557 8.74379 9.06569 8.67788 9.18375 8.56057C9.30181 8.44325 9.36814 8.28414 9.36814 8.11823C9.36814 7.95233 9.30181 7.79321 9.18375 7.6759C9.06569 7.55858 8.90557 7.49268 8.73861 7.49268H1.82741V4.99045H8.73861C8.90557 4.99045 9.06569 4.92454 9.18375 4.80723C9.30181 4.68991 9.36814 4.5308 9.36814 4.36489C9.36814 4.19898 9.30181 4.03987 9.18375 3.92255C9.06569 3.80524 8.90557 3.73933 8.73861 3.73933H1.82741V1.87517C1.82768 1.70974 1.89393 1.55116 2.01165 1.43419C2.12937 1.31721 2.28895 1.25138 2.45543 1.25111H9.99666C10.1635 1.25111 10.3235 1.31697 10.4414 1.43419C10.5594 1.55141 10.6257 1.7104 10.6257 1.87617V25.5988C10.6255 25.7645 10.5592 25.9234 10.4413 26.0405C10.3233 26.1576 10.1634 26.2234 9.99666 26.2234H2.45543C2.28886 26.2231 2.1292 26.1572 2.01147 26.0401C1.89374 25.923 1.82755 25.7643 1.82741 25.5988V18.1051C1.82741 17.9392 1.76109 17.7801 1.64303 17.6628C1.52497 17.5455 1.36485 17.4796 1.19789 17.4796C1.03093 17.4796 0.870803 17.5455 0.752744 17.6628C0.634684 17.7801 0.568359 17.9392 0.568359 18.1051V25.5988C0.568293 25.8451 0.617055 26.089 0.711859 26.3166C0.806664 26.5441 0.945654 26.7509 1.12089 26.9251C1.29613 27.0993 1.50418 27.2374 1.73316 27.3317C1.96215 27.426 2.20757 27.4745 2.45543 27.4745H9.99666C10.2441 27.4745 10.4892 27.4259 10.7177 27.3316C10.9463 27.2373 11.1539 27.0991 11.3285 26.9248C11.5032 26.7506 11.6415 26.5438 11.7356 26.3164C11.8297 26.0889 11.8776 25.8452 11.8767 25.5993V1.87517C11.8776 1.62925 11.8297 1.38557 11.7356 1.1581C11.6415 0.930638 11.5032 0.723865 11.3285 0.549647C11.1539 0.37543 10.9463 0.237195 10.7177 0.142873C10.4892 0.048551 10.2441 -1.7294e-06 9.99666 0Z" fill="#B2B2BC"/>
</g>
<defs>
<clipPath id="clip0_2_12">
<rect width="27.6483" height="27.474" fill="white" transform="translate(0.576172)"/>
</clipPath>
</defs>
</svg>
