<svg width="12" height="11" viewBox="0 0 12 11" fill="none" xmlns="http://www.w3.org/2000/svg">
<path d="M3.56666 4.19224L11.0833 4.19225C11.3431 4.19225 11.5606 4.28021 11.736 4.45615C11.9114 4.63209 11.9994 4.84957 12 5.10858C12 5.36821 11.912 5.586 11.736 5.76193C11.56 5.93787 11.3424 6.02553 11.0833 6.02492L3.56666 6.02492L6.225 8.6823C6.39305 8.85029 6.47708 9.06411 6.47708 9.32374C6.47708 9.58337 6.39305 9.79718 6.225 9.96517C6.05694 10.1332 5.84305 10.2172 5.58333 10.2172C5.32361 10.2172 5.10972 10.1332 4.94166 9.96517L0.724998 5.75002C0.541665 5.56675 0.449998 5.35294 0.449998 5.10858C0.449998 4.86422 0.541665 4.65041 0.724998 4.46714L4.94167 0.251991C5.10972 0.0839958 5.32361 -1.45886e-06 5.58333 -1.40211e-06C5.84306 -1.34535e-06 6.05694 0.083996 6.225 0.251991C6.39305 0.419987 6.47708 0.633799 6.47708 0.893428C6.47708 1.15306 6.39305 1.36687 6.225 1.53486L3.56666 4.19224Z" fill="white"/>
</svg>
