<svg width="12" height="11" viewBox="0 0 12 11" fill="none" xmlns="http://www.w3.org/2000/svg">
<path d="M8.43333 6.80776L0.916667 6.80775C0.656945 6.80775 0.43939 6.71979 0.264001 6.54385C0.0886118 6.36791 0.000611747 6.15043 6.7015e-07 5.89142C7.04209e-07 5.63179 0.0880008 5.414 0.264001 5.23807C0.440001 5.06213 0.657556 4.97447 0.916668 4.97508L8.43334 4.97508L5.775 2.3177C5.60695 2.1497 5.52292 1.93589 5.52292 1.67626C5.52292 1.41663 5.60695 1.20282 5.775 1.03483C5.94306 0.866833 6.15695 0.782833 6.41667 0.782833C6.67639 0.782833 6.89028 0.866833 7.05834 1.03483L11.275 5.24998C11.4583 5.43325 11.55 5.64706 11.55 5.89142C11.55 6.13578 11.4583 6.34959 11.275 6.53285L7.05833 10.748C6.89028 10.916 6.67639 11 6.41667 11C6.15694 11 5.94306 10.916 5.775 10.748C5.60695 10.58 5.52292 10.3662 5.52292 10.1066C5.52292 9.84694 5.60695 9.63313 5.775 9.46513L8.43333 6.80776Z" fill="white"/>
</svg>
