<svg width="90" height="81" viewBox="0 0 90 81" fill="none" xmlns="http://www.w3.org/2000/svg">
<g clip-path="url(#clip0_2_3187)">
<path d="M70.6067 36.8623C53.0341 36.0713 42.5064 27.9238 44.4062 22.0703C39.736 29.585 50.422 41.0547 69.3402 41.6875L70.6067 36.8623Z" fill="#001B71"/>
<path d="M71.3991 34.252L72.5864 29.5059C62.1378 30.0596 54.2223 27.8447 50.1853 24.7598C47.7315 22.9404 45.0402 19.1436 51.0561 15.0303L51.1352 14.793C37.6787 23.3359 51.6893 35.2012 71.3991 34.252Z" fill="#001B71"/>
<path fill-rule="evenodd" clip-rule="evenodd" d="M70.686 36.8594C66.4908 38.916 61.1873 41.8428 58.4169 43.5039C46.5435 50.3066 41.3193 59.7197 45.6728 66.6807C43.219 60.9063 47.4142 53.708 59.3668 47.3008C61.7414 46.0352 65.7784 43.6621 69.4987 41.7637L70.686 36.8594Z" fill="#B49A00"/>
<path fill-rule="evenodd" clip-rule="evenodd" d="M72.6647 29.5039C67.9154 32.0352 61.3454 35.5156 57.7834 37.4932C43.6937 45.4033 38.3903 56.5566 42.7438 64.7832C40.1317 58.1387 46.4642 47.5391 58.8125 41.1318C61.6621 39.4707 66.8863 36.5439 71.3982 34.25L72.6647 29.5039Z" fill="#B49A00"/>
<path d="M19.3926 29.8213C36.9651 30.6123 47.4928 38.7598 45.5931 44.6133C50.2633 37.0986 39.5773 25.6289 20.6591 24.9961L19.3926 29.8213Z" fill="#001B71"/>
<path d="M18.6806 32.4325L17.4141 37.1786C27.8626 36.6249 35.7782 38.8397 39.8151 41.9247C42.2689 43.744 44.9602 47.5409 38.9444 51.6542L38.8652 51.8915C52.3217 43.3485 38.3112 31.4833 18.6806 32.4325Z" fill="#001B71"/>
<path fill-rule="evenodd" clip-rule="evenodd" d="M19.3145 29.8213C23.5097 27.7646 28.8131 24.8379 31.5836 23.1768C43.5361 16.374 48.7604 7.04004 44.4068 0C46.8606 5.77441 42.6654 12.9727 30.7129 19.3799C28.3382 20.6455 24.3013 23.0186 20.5809 24.917L19.3145 29.8213Z" fill="#B49A00"/>
<path fill-rule="evenodd" clip-rule="evenodd" d="M17.4141 37.1777C22.1634 34.6465 28.7333 31.166 32.2953 29.1885C46.385 21.2783 51.6885 10.125 47.3349 1.89844C49.947 8.54297 43.6146 19.1426 31.2663 25.5498C28.4167 27.2109 23.1924 30.1377 18.6806 32.4316L17.4141 37.1777Z" fill="#B49A00"/>
<path d="M5.85752 80.9199L5.30343 79.8916H1.97889L1.4248 80.9199H0L3.08707 75.6992H4.11609L7.20317 80.9199H5.85752ZM3.64116 76.8857L2.37467 79.2588H4.98681L3.64116 76.8857Z" fill="#001B71"/>
<path d="M26.754 80.9199L26.1208 79.8916H22.7962L22.2421 80.9199H20.8965L23.9836 75.6992H25.0126L28.0997 80.9199H26.754ZM24.4585 76.8857L23.1128 79.1797H25.725L24.4585 76.8857Z" fill="#001B71"/>
<path d="M33.9587 80.9229L30.0009 77.2842V80.9229H28.7344V75.7812H29.9217L33.8003 79.4199V75.7812H35.146V80.9229H33.9587Z" fill="#001B71"/>
<path d="M10.0531 75.7812V79.2617C10.0531 79.9736 9.49902 80.29 8.47 80.29C8.31169 80.29 8.15337 80.29 8.07422 80.29V81.002C8.23253 81.002 8.31169 81.002 8.47 81.002C10.0531 81.002 11.3196 80.3691 11.3196 79.3408V75.7812H10.0531Z" fill="#001B71"/>
<path d="M18.8392 75.7812L16.3854 78.7871L13.9316 75.7812H12.5859V80.9229H13.9316V77.5215L15.8313 79.8945H16.9395L18.8392 77.5215V80.9229H20.1057V75.7812H18.8392Z" fill="#001B71"/>
<path d="M58.9718 80.9199L58.4177 79.8916H55.0932L54.5391 80.9199H53.0352L56.1222 75.6992H57.1512L60.2383 80.9199H58.9718ZM56.7555 76.8857L55.4098 79.1797H58.022L56.7555 76.8857Z" fill="#001B71"/>
<path d="M73.2181 80.9199H69.8145V75.6992H73.139C74.7221 75.6992 75.672 76.2529 75.672 77.123C75.672 77.6768 75.1179 78.0723 74.5638 78.2305C75.197 78.3887 75.8303 78.7842 75.8303 79.417C75.8303 80.4453 74.7221 80.9199 73.2181 80.9199ZM72.9807 76.4902H71.0809V78.1514H72.9807C73.7722 78.1514 74.4055 77.9141 74.4055 77.2812C74.4055 76.7275 73.7722 76.4902 72.9807 76.4902ZM73.139 78.7842H71.0809V80.2871H73.139C74.0097 80.2871 74.5638 79.9707 74.5638 79.4961C74.4846 78.8633 74.0097 78.7842 73.139 78.7842Z" fill="#001B71"/>
<path d="M77.0176 80.9229V75.7812H82.4793V76.4932H78.3632V78.0752H81.8461V78.7871H78.3632V80.2109H82.4793V80.9229H77.0176Z" fill="#001B71"/>
<path d="M88.4964 80.9199L86.6758 78.7051H85.0927V80.9199H83.8262V75.6992H87.0716C88.6547 75.6992 89.6837 76.332 89.6837 77.2021C89.6837 77.9141 88.9713 78.4678 88.0214 78.626L90.0003 80.9199H88.4964ZM86.9924 76.4902H85.0927V78.1514H86.9924C87.8631 78.1514 88.4172 77.835 88.4172 77.3604C88.4172 76.7275 87.8631 76.4902 86.9924 76.4902Z" fill="#001B71"/>
<path d="M67.2025 75.7812L64.7487 78.8662L62.2949 75.7812H60.9492V80.9229H62.2949V77.5215L64.1946 79.8945H65.3028L67.2025 77.5215V80.9229H68.469V75.7812H67.2025Z" fill="#001B71"/>
<path d="M42.0313 81.002C41.1606 81.002 40.369 80.7646 39.8149 80.4482C38.9442 79.9736 39.0234 79.3408 39.0234 78.3916C39.0234 77.3633 39.0234 76.8096 39.8149 76.335C40.369 76.0186 41.1606 75.7812 42.0313 75.7812C43.6144 75.7812 44.8017 76.4141 45.0392 77.5215H43.7727C43.6144 76.8096 42.9811 76.4932 42.0313 76.4932C41.5563 76.4932 41.0814 76.5723 40.7648 76.8096C40.369 77.0469 40.2107 77.3633 40.2107 78.3916C40.2107 79.4199 40.2898 79.7363 40.7648 80.0527C41.0814 80.2109 41.4772 80.3691 42.0313 80.3691C42.9811 80.3691 43.6144 80.0527 43.8519 79.3408H45.1183C44.8017 80.4482 43.6144 81.002 42.0313 81.002Z" fill="#001B71"/>
<path d="M51.1341 80.9229V78.7871H47.6513V80.9229H46.3848V75.7812H47.6513V78.0752H51.1341V75.7812H52.4006V80.9229H51.1341Z" fill="#001B71"/>
<path d="M31.4247 73.8794C31.4247 74.1958 31.1081 74.5122 30.7915 74.5122C30.3957 74.5122 30.1582 74.1958 30.1582 73.8794C30.1582 73.4839 30.4748 73.2466 30.7915 73.2466C31.1081 73.1675 31.4247 73.4839 31.4247 73.8794Z" fill="#001B71"/>
<path d="M71.0816 71.9023V68.7383H68.7069H68.3903C67.2029 68.7383 66.1739 69.3711 66.1739 70.083C66.1739 70.7949 67.1238 71.4277 68.3903 71.4277H69.8151V71.9023V72.1396H54.3797V68.7383H51.2135C49.6304 68.7383 48.918 70.1621 48.918 71.1904C48.918 71.2695 48.918 72.9307 48.918 72.9307H71.0024L71.0816 71.9023ZM68.8652 70.7158H68.6277C67.9945 70.7158 67.4404 70.3994 67.4404 70.083C67.4404 69.7666 67.9945 69.4502 68.6277 69.4502H68.8652H69.8151V70.7158H68.8652ZM53.1132 72.1396H50.2636V71.0322C50.2636 70.3203 50.5802 69.4502 51.6093 69.4502H53.1132V72.1396Z" fill="#001B71"/>
<path d="M89.9999 72.1416H85.488C85.4089 72.0625 85.3297 71.9043 85.2506 71.7461C85.1714 71.5088 85.1714 71.3506 85.1714 71.1133C85.1714 70.876 85.1714 70.6387 85.2506 70.4014C85.3297 70.1641 85.4089 70.0059 85.5672 69.9268C85.7255 69.7686 85.8838 69.6895 86.1213 69.6104C86.3588 69.5313 86.5962 69.4522 86.8337 69.4522C87.1503 69.4522 87.3878 69.5313 87.5461 69.6104C87.7836 69.6895 87.9419 69.7686 88.1002 69.9268C88.2585 70.085 88.3376 70.2432 88.4168 70.4014C88.496 70.5596 88.496 70.7969 88.5751 70.9551H89.8416C89.8416 70.6387 89.7624 70.4014 89.6041 70.085C89.4458 69.7686 89.2875 69.5313 88.9709 69.2939C88.7334 69.0566 88.3376 68.8984 88.021 68.8193C87.6252 68.6611 87.2295 68.6611 86.7545 68.6611C86.2004 68.6611 85.8047 68.7402 85.4089 68.8193C85.0131 68.9775 84.6965 69.1357 84.459 69.2939C84.2215 69.5313 83.9841 69.7686 83.9049 70.0059C83.7466 70.3223 83.7466 70.6387 83.7466 70.9551C83.7466 71.3506 83.8258 71.667 83.9841 71.9043C83.9841 71.9043 83.9841 71.9043 83.9841 71.9834H74.802V68.582H73.5355V72.0625C73.5355 72.7744 72.9814 73.0908 71.9524 73.0908C71.7941 73.0908 71.6358 73.0908 71.5566 73.0908V73.8027C71.715 73.8027 71.7941 73.8027 71.9524 73.8027C73.2189 73.8027 74.2479 73.4072 74.6437 72.7744H89.9999V72.1416Z" fill="#001B71"/>
<path d="M40.6869 72.1416C40.6077 72.0625 40.5286 71.9043 40.4494 71.7461C40.3703 71.5088 40.3703 71.3506 40.3703 71.1133C40.3703 70.876 40.3703 70.6387 40.4494 70.4014C40.5286 70.1641 40.6077 70.0059 40.7661 69.9268C40.9244 69.7686 41.0827 69.6895 41.3201 69.6104C41.5576 69.5313 41.7951 69.4522 42.0325 69.4522C42.3492 69.4522 42.5866 69.5313 42.7449 69.6104C42.9824 69.6895 43.1407 69.7686 43.299 69.9268C43.4573 70.085 43.5365 70.2432 43.6157 70.4014C43.6948 70.5596 43.6948 70.7969 43.774 70.9551H45.1196C45.1196 70.6387 45.0405 70.3223 44.8821 70.085C44.7238 69.7686 44.5655 69.5313 44.2489 69.2939C44.0114 69.0566 43.6157 68.8984 43.299 68.8193C42.9033 68.6611 42.5075 68.6611 42.0325 68.6611C41.5576 68.6611 41.0827 68.7402 40.6869 68.8193C40.2911 68.9775 39.9745 69.1357 39.737 69.2939C39.4996 69.5313 39.2621 69.7686 39.1829 70.0059C39.0246 70.3223 39.0246 70.6387 39.0246 70.9551C39.0246 71.3506 39.1038 71.667 39.2621 71.9043C39.2621 71.9043 39.2621 71.9043 39.2621 71.9834H33.8795C33.5629 71.9834 33.2463 71.5879 33.2463 70.7969C33.2463 70.0059 33.1671 69.6104 32.4547 69.1357C31.8215 68.7402 31.1091 68.582 30.2383 68.582C28.6552 68.582 27.4679 69.1357 27.2304 70.1641H28.5761C28.8135 69.6104 29.3676 69.2939 30.3175 69.2939C30.7924 69.2939 31.2674 69.373 31.584 69.6104C31.9006 69.8477 32.0589 70.085 32.0589 70.7969C32.0589 71.9043 32.2964 71.9834 32.4547 72.0625H29.2885H23.5101H22.3228L22.4019 71.9834C22.5602 71.667 22.6394 71.3506 22.6394 71.0342C22.6394 70.7178 22.5602 70.4014 22.4019 70.085C22.2436 69.7686 22.0853 69.5313 21.7687 69.2939C21.5312 69.0566 21.2146 68.8984 20.8188 68.8193C20.423 68.7402 20.0273 68.6611 19.5523 68.6611C19.0774 68.6611 18.6025 68.7402 18.2067 68.8193C17.8109 68.9775 17.4943 69.1357 17.2568 69.2939C17.0194 69.5313 16.7819 69.7686 16.7027 70.085C16.5444 70.4014 16.4653 70.7178 16.4653 71.0342C16.4653 71.4297 16.5444 71.7461 16.7027 72.0625L16.7819 72.1416H8.54969V67H7.2832V72.8535H17.336C17.5734 73.0117 17.8901 73.1699 18.2858 73.3281C18.6816 73.4072 19.0774 73.4863 19.5523 73.4863C20.0273 73.4863 20.423 73.4072 20.8188 73.3281C21.1354 73.249 21.4521 73.0908 21.6895 72.8535H23.2726H29.2885H45.1196V72.1416H40.6869ZM21.1354 71.7461C21.0563 71.9834 20.9771 72.1416 20.8188 72.2998C20.6605 72.458 20.5022 72.5371 20.2647 72.6162C20.0273 72.6953 19.7898 72.6953 19.5523 72.6953C19.2357 72.6953 18.9982 72.6162 18.8399 72.6162C18.6025 72.5371 18.4442 72.3789 18.2858 72.2998C18.1275 72.1416 18.0484 71.9834 17.9692 71.7461C17.8901 71.5088 17.8109 71.3506 17.8109 71.0342C17.8109 70.7969 17.8109 70.5596 17.9692 70.4014C18.0484 70.1641 18.1275 70.0059 18.2858 69.8477C18.4442 69.6895 18.6025 69.6104 18.8399 69.5313C19.0774 69.4522 19.3149 69.373 19.5523 69.373C19.869 69.373 20.1064 69.4522 20.2647 69.5313C20.5022 69.6104 20.6605 69.7686 20.8188 69.8477C20.9771 70.0059 21.0563 70.1641 21.1354 70.4014C21.2146 70.5596 21.2938 70.7969 21.2938 71.0342C21.2938 71.3506 21.2146 71.5088 21.1354 71.7461Z" fill="#001B71"/>
<path d="M4.82839 71.7441C4.82839 72.4561 4.19514 72.7725 3.32443 72.7725H3.00781C2.05794 72.7725 1.50385 72.4561 1.50385 71.7441V68.7383H0.158203V71.8232C0.158203 72.9307 1.42469 73.4844 3.00781 73.4844H3.32443C4.90754 73.4844 6.17403 72.8516 6.17403 71.8232V68.7383H4.82839V71.7441Z" fill="#001B71"/>
<path d="M87.3095 67.6328C87.3095 67.9492 86.9928 68.2656 86.6762 68.2656C86.2804 68.2656 86.043 67.9492 86.043 67.6328C86.043 67.2373 86.3596 67 86.6762 67C86.9928 67 87.3095 67.3164 87.3095 67.6328Z" fill="#001B71"/>
<path d="M69.4188 67.6328C69.4188 67.9492 69.1022 68.2656 68.7856 68.2656C68.469 68.2656 68.1523 67.9492 68.1523 67.6328C68.1523 67.2373 68.469 67 68.7856 67C69.1022 67 69.4188 67.3164 69.4188 67.6328Z" fill="#001B71"/>
<path d="M51.6102 67.6328C51.6102 67.9492 51.2936 68.2656 50.977 68.2656C50.5812 68.2656 50.3438 67.9492 50.3438 67.6328C50.3438 67.2373 50.6604 67 50.977 67C51.2936 67 51.6102 67.3164 51.6102 67.6328Z" fill="#001B71"/>
<path d="M53.3505 67.6328C53.3505 67.9492 53.0338 68.2656 52.7172 68.2656C52.3214 68.2656 52.084 67.9492 52.084 67.6328C52.084 67.2373 52.4006 67 52.7172 67C53.0338 67 53.3505 67.3164 53.3505 67.6328Z" fill="#001B71"/>
</g>
<defs>
<clipPath id="clip0_2_3187">
<rect width="90" height="81" fill="white"/>
</clipPath>
</defs>
</svg>
