<svg width="89" height="73" viewBox="0 0 89 73" fill="none" xmlns="http://www.w3.org/2000/svg">
<g clip-path="url(#clip0_2_2585)">
<path d="M22.8105 13.7773V33.0215C24.3547 32.3114 29.9699 29.5419 35.585 23.648C29.8295 23.2219 25.8287 21.3046 22.8105 13.7773Z" fill="#324D9D"/>
<path d="M36.7782 22.9362C30.5314 23.0782 25.6883 20.2378 22.8105 12.3555V13.8467V14.3438C25.7585 21.445 29.7593 23.2913 35.1639 23.7883C29.7593 29.3273 24.4249 32.0257 22.8105 32.7358V32.9489V33.872C25.9691 32.6648 32.2159 28.5461 36.708 23.5043L37.1993 22.9362H36.7782Z" fill="#8294A2"/>
<path d="M66.1881 10.1548V7.52734C56.9933 25.4223 37.6913 39.9087 29.8301 44.4534H33.1992C39.446 40.1217 57.6952 26.7005 66.1881 10.1548Z" fill="#324D9D"/>
<path d="M66.1884 21.4449V19.1016C58.8186 30.0374 48.1498 39.1269 41.1309 44.3817H44.0788C50.7468 39.1269 59.731 31.0315 66.1884 21.4449Z" fill="#324D9D"/>
<path d="M66.1873 16.1906V13.4922C57.9049 27.7655 43.1652 39.3404 36.0059 44.3823H38.4625C45.6218 39.1984 58.3962 28.8307 66.1873 16.1906Z" fill="#324D9D"/>
<path d="M66.0471 3.47957V0C64.9943 2.76946 52.9217 26.6294 22.8105 44.3823H26.671C32.5669 40.6897 55.3784 25.2802 66.0471 3.47957Z" fill="#8294A2"/>
<path d="M31.5148 12.8531C34.5329 14.4864 38.8144 15.1965 43.5873 13.1372C47.8689 11.2909 52.9225 7.45623 57.6252 0H23.2324C23.5132 1.06518 24.9872 9.44455 31.5148 12.8531Z" fill="#324D9D"/>
<path d="M66.187 31.5277V29.1133C61.5545 35.0073 56.2201 40.2621 51.4473 44.3808H53.9741C57.9749 40.7592 62.3266 36.3565 66.187 31.5277Z" fill="#324D9D"/>
<path d="M66.1877 36.1453V34.0859C63.0292 37.8496 59.5899 41.3291 56.291 44.3826H58.3967C60.9937 41.8972 63.6609 39.1278 66.1877 36.1453Z" fill="#324D9D"/>
<path d="M66.1877 38.5586C64.4329 40.6179 62.5378 42.5352 60.7129 44.3816H66.1877V38.5586Z" fill="#324D9D"/>
<path d="M66.1884 26.4865V24.2852C60.2925 32.4515 52.7822 39.4817 46.6758 44.4525H48.9218C54.4668 39.7657 60.9242 33.5877 66.1884 26.4865Z" fill="#324D9D"/>
<path d="M57.6946 0H57.4139C52.7112 8.02432 47.096 11.3619 43.5164 12.9241C37.9714 15.3385 33.6899 13.7763 31.5842 12.6401C25.197 9.37354 24.1441 0.994163 23.9336 0H22.8105C23.3019 3.55058 24.7758 10.6517 31.4438 14.0603C32.7774 14.7704 34.8831 15.6226 37.6907 15.6226C39.4454 15.6226 41.4809 15.2675 43.7269 14.3444C47.3768 12.7821 54.4659 8.23735 58.5369 0H57.6946Z" fill="#8294A2"/>
<path d="M41.7635 65.2578C41.9741 65.2578 42.325 65.2578 42.7462 65.2578C42.7462 65.2578 42.7462 65.3288 42.7462 65.3998C42.7462 65.4708 42.7462 65.5419 42.7462 65.5419C42.7462 65.6839 42.7462 65.7549 42.7462 65.8259C42.676 65.8259 42.5356 65.8259 42.3952 65.8259C42.2548 65.8259 42.1145 65.8259 41.9741 65.8259H41.0616H40.3597L40.2895 67.2461V67.6722V68.2403H41.2722H41.7635C41.8337 68.2403 41.9741 68.2403 42.1846 68.2403C42.3952 68.2403 42.5356 68.2403 42.6058 68.2403C42.6058 68.4533 42.5356 68.5243 42.5356 68.5243C42.5356 68.5243 42.5356 68.5954 42.6058 68.8084C42.2548 68.7374 41.9741 68.7374 41.7635 68.7374H41.2722H40.8511H40.2895V69.5185V72.0039H39.6578H39.4473L39.5175 70.7967V67.5302V66.678C39.5175 66.536 39.5175 66.181 39.4473 65.4708H40.4299H41.7635V65.2578Z" fill="#8294A2"/>
<path d="M44.641 68.2403C44.7112 68.2403 44.7814 68.2403 44.8515 68.2403C44.9217 68.2403 44.9919 68.2403 45.0621 68.2403C45.3429 68.2403 45.6236 68.2403 45.8342 68.1693C46.1851 68.0983 46.4659 67.9563 46.6765 67.6722C46.887 67.4592 47.0274 67.1041 47.0274 66.7491C47.0274 66.394 46.9572 66.11 46.7467 65.8969C46.6063 65.6839 46.3255 65.6129 46.0448 65.5419C45.9044 65.5419 45.6938 65.5419 45.4833 65.5419C45.1323 65.5419 44.8515 65.5419 44.7112 65.5419L44.641 68.2403ZM44.5708 65.2578H45.8342C46.2553 65.2578 46.6765 65.3288 47.0274 65.3998C47.3784 65.4708 47.5889 65.6839 47.7293 66.0389C47.8697 66.252 47.9399 66.465 47.9399 66.7491C47.9399 67.2461 47.7293 67.6722 47.3784 67.9563C47.0274 68.2403 46.5361 68.4533 46.0448 68.5243L48.0101 71.0098L48.5014 71.5779L48.6418 71.7909C48.5716 71.7909 48.5014 71.7909 48.361 71.7909C48.2206 71.7909 48.1504 71.7909 48.0803 71.7909C48.0101 71.7909 47.9399 71.7909 47.7995 71.7909C47.6591 71.7909 47.5889 71.7909 47.5187 71.7909C47.4485 71.7199 47.3784 71.6489 47.238 71.4358C47.0976 71.2938 47.0274 71.0808 46.887 71.0098L45.764 69.5185L44.9919 68.5954H44.641V69.3765V69.8026V71.7909C44.4304 71.7909 44.29 71.7909 44.2198 71.7909C44.0795 71.7909 43.9391 71.7909 43.7285 71.7909C43.7285 71.6489 43.7285 71.4358 43.7285 71.2228C43.7285 71.0098 43.7285 70.8677 43.7285 70.6547L43.7987 67.3172L43.7285 65.4708V65.2578H44.5708Z" fill="#8294A2"/>
<path d="M51.9392 65.2578C52.1497 65.2578 52.5007 65.2578 52.9218 65.2578C52.9218 65.2578 52.9218 65.3288 52.9218 65.3998C52.9218 65.4708 52.9218 65.5419 52.9218 65.5419C52.9218 65.6839 52.9218 65.7549 52.9218 65.8259C52.8516 65.8259 52.7113 65.8259 52.5709 65.8259C52.4305 65.8259 52.2901 65.8259 52.1497 65.8259H51.2373H50.5354L50.4652 67.2461V67.6722V68.2403H51.4478H51.9392C52.0094 68.2403 52.1497 68.2403 52.3603 68.2403C52.5709 68.2403 52.7113 68.2403 52.7814 68.2403C52.7814 68.4533 52.7113 68.5243 52.7113 68.5243C52.7113 68.5243 52.7113 68.5954 52.7814 68.8084C52.4305 68.7374 52.1497 68.7374 51.9392 68.7374H51.4478H51.0267H50.4652V69.5185V70.7257C50.4652 71.0808 50.4652 71.3648 50.4652 71.5779C51.0267 71.5779 51.5882 71.5778 52.1497 71.5068C52.4305 71.5068 52.7113 71.5068 52.992 71.4358C52.992 71.7199 52.992 71.8619 52.992 72.0039H52.3603C51.869 72.0039 51.4478 72.0039 51.1671 72.0039C51.0969 72.0039 50.9565 72.0039 50.746 72.0039C50.5354 72.0039 50.395 72.0039 50.3248 72.0039C50.2546 72.0039 50.1142 72.0039 49.9739 72.0039C49.8335 72.0039 49.6931 72.0039 49.5527 72.0039L49.6229 70.7967V67.5302V66.678C49.6229 66.536 49.6229 66.181 49.5527 65.4708H50.5354H51.9392V65.2578Z" fill="#8294A2"/>
<path d="M56.9939 65.2578C57.2044 65.2578 57.5554 65.2578 57.9765 65.2578C57.9765 65.2578 57.9765 65.3288 57.9765 65.3998C57.9765 65.4708 57.9765 65.5419 57.9765 65.5419C57.9765 65.6839 57.9765 65.7549 57.9765 65.8259C57.9063 65.8259 57.7659 65.8259 57.6256 65.8259C57.4852 65.8259 57.3448 65.8259 57.2044 65.8259H56.292H55.5901L55.5199 67.2461V67.6722V68.2403H56.5025H56.9939C57.064 68.2403 57.2044 68.2403 57.415 68.2403C57.6256 68.2403 57.7659 68.2403 57.8361 68.2403C57.8361 68.4533 57.7659 68.5243 57.7659 68.5243C57.7659 68.5243 57.7659 68.5954 57.8361 68.8084C57.4852 68.7374 57.2044 68.7374 56.9939 68.7374H56.5025H56.0814H55.4497V69.5185V70.7257C55.4497 71.0808 55.4497 71.3648 55.4497 71.5779C56.0112 71.5779 56.5727 71.5778 57.1342 71.5068C57.415 71.5068 57.6957 71.5068 57.9765 71.4358C57.9765 71.7199 57.9765 71.8619 57.9765 72.0039H57.3448C56.8535 72.0039 56.4323 72.0039 56.2218 72.0039C56.1516 72.0039 56.0112 72.0039 55.8006 72.0039C55.5901 72.0039 55.4497 72.0039 55.3795 72.0039C55.3093 72.0039 55.1689 72.0039 55.0286 72.0039C54.818 72.0039 54.7478 72.0039 54.6074 72.0039L54.6776 70.7967V67.5302V66.678C54.6776 66.536 54.6776 66.181 54.6074 65.4708H55.5901H56.9939V65.2578Z" fill="#8294A2"/>
<path d="M67.1016 71.2228L68.0141 71.1518C68.0141 71.2938 67.9439 71.3648 67.9439 71.5068C67.9439 71.5778 67.9439 71.6489 67.9439 71.7909H67.7333H66.5401H64.3642L62.6797 71.8619V71.7199L65.4171 67.8142C66.0488 66.8911 66.4699 66.252 66.7507 65.8259H65.6978L63.8729 65.7549L63.1008 65.8259C63.1008 65.6839 63.1008 65.6129 63.1008 65.5419C63.1008 65.3998 63.1008 65.3288 63.1008 65.2578C63.6623 65.2578 64.0133 65.2578 64.294 65.2578H66.891H68.0141H68.0843V65.3288L66.9612 66.8201L64.7854 70.0156L64.0133 71.2228V71.2938H64.645H65.1363L67.1016 71.2228Z" fill="#8294A2"/>
<path d="M74.4709 66.3251C74.2603 66.041 73.9795 65.828 73.6286 65.615C73.2776 65.4729 72.9267 65.4019 72.5056 65.4019C71.944 65.4019 71.3825 65.544 70.9614 65.899C70.6104 66.1831 70.3297 66.5381 70.1191 67.0352C69.9787 67.5323 69.8384 68.0294 69.8384 68.5975C69.8384 69.4496 70.0489 70.1597 70.5403 70.6568C71.0316 71.2249 71.6633 71.5089 72.4354 71.5089C72.8565 71.5089 73.2776 71.4379 73.6286 71.2249C73.9795 71.0119 74.2603 70.7278 74.541 70.3728C74.7516 70.0177 74.9622 69.6626 75.0324 69.2366C75.1026 68.9525 75.1026 68.6685 75.1026 68.3844C75.1026 67.9584 75.0324 67.5323 74.9622 67.2482C74.892 66.8932 74.6814 66.6091 74.4709 66.3251ZM74.2603 65.4729C75.3833 66.112 76.015 67.0352 76.015 68.3844C76.015 69.0945 75.8746 69.7336 75.5237 70.2307C75.2429 70.7988 74.8218 71.1539 74.2603 71.4379C73.6988 71.722 73.0671 71.864 72.4354 71.864C71.7335 71.864 71.0316 71.722 70.5403 71.3669C69.9787 71.0829 69.5576 70.5858 69.2768 69.9467C69.2067 69.8047 69.1365 69.5206 69.0663 69.1656C69.0663 68.9525 68.9961 68.6685 68.9961 68.4554C68.9961 67.3903 69.347 66.6091 70.0489 65.97C70.7508 65.3309 71.5229 65.0469 72.4354 65.0469C73.1373 65.0469 73.769 65.1889 74.2603 65.4729Z" fill="#8294A2"/>
<path d="M76.9275 68.2424V65.0469H77.0679L81.7004 70.0887L81.7705 70.1597C81.7705 69.9467 81.7705 69.5916 81.7705 69.0945V66.041V65.2599V65.1889C81.9811 65.1889 82.0513 65.1889 82.1917 65.1889C82.2619 65.1889 82.3321 65.1889 82.4023 65.1889C82.4023 65.1889 82.4023 65.2599 82.4023 65.3309C82.4023 65.4019 82.4023 65.4019 82.4023 65.4729L82.3321 66.3961L82.2619 68.6685V70.7988V71.864H82.1215C81.9109 71.5799 81.7004 71.3669 81.56 71.1539L80.0158 69.4496L77.4188 66.6091V67.5323V68.9525V69.7336V70.8698L77.489 71.793C77.4188 71.793 77.2784 71.793 77.1381 71.793C76.9977 71.793 76.8573 71.793 76.7871 71.793C76.8573 71.2249 76.8573 70.7988 76.8573 70.5148L76.9275 68.2424Z" fill="#8294A2"/>
<path d="M87.3162 65.2578C87.5268 65.2578 87.8778 65.2578 88.2989 65.2578C88.2989 65.2578 88.2989 65.3288 88.2989 65.3998C88.2989 65.4708 88.2989 65.5419 88.2989 65.5419C88.2989 65.6839 88.2989 65.7549 88.2989 65.8259C88.2287 65.8259 88.0883 65.8259 87.948 65.8259C87.8076 65.8259 87.6672 65.8259 87.5268 65.8259H86.6144H85.9125L85.8423 67.2461V67.6722V68.2403H86.8249H87.3162C87.3864 68.2403 87.5268 68.2403 87.7374 68.2403C87.948 68.2403 88.0883 68.2403 88.1585 68.2403C88.1585 68.4533 88.0883 68.5243 88.0883 68.5243C88.0883 68.5243 88.0883 68.5954 88.1585 68.8084C87.8076 68.7374 87.5268 68.7374 87.3162 68.7374H86.8249H86.3336H85.8423V69.5185V70.7257C85.8423 71.0808 85.8423 71.3648 85.8423 71.5779C86.4038 71.5779 86.9653 71.5778 87.5268 71.5068C87.8076 71.5068 88.0883 71.5068 88.3691 71.4358C88.3691 71.7199 88.3691 71.8619 88.3691 72.0039H87.7374C87.2461 72.0039 86.8249 72.0039 86.6144 72.0039C86.5442 72.0039 86.4038 72.0039 86.1932 72.0039C85.9827 72.0039 85.8423 72.0039 85.7721 72.0039C85.7019 72.0039 85.5615 72.0039 85.4211 72.0039C85.2106 72.0039 85.1404 72.0039 85 72.0039L85.0702 70.7967V67.5302V66.678C85.0702 66.536 85.0702 66.181 85 65.4708H85.9827H87.3162V65.2578Z" fill="#8294A2"/>
<path d="M3.86041 68.7388L2.80757 66.3244L1.75473 68.7388H2.87776H3.86041ZM3.15852 65.1172L5.82571 71.4372L5.96609 71.7923C5.75552 71.7923 5.61514 71.7923 5.47476 71.7923C5.2642 71.7923 5.05363 71.7923 4.98344 71.7923L4.91325 71.5082L4.42192 70.301L4.00079 69.1649H2.87776H1.61435C1.12303 70.3721 0.842271 71.2242 0.701893 71.7213C0.631703 71.7213 0.491325 71.7213 0.350946 71.7213C0.280757 71.7213 0.140379 71.7213 0 71.7213L2.94795 65.1172H3.15852Z" fill="#8294A2"/>
<path d="M7.08984 72.7857C7.58117 72.7857 7.86193 72.5727 8.0023 72.2887C8.14268 72.0046 8.21287 71.5785 8.21287 71.0105C8.21287 70.1583 8.21287 69.5902 8.21287 69.1642V68.028V67.3889C8.21287 66.4657 8.14268 65.7556 8.14268 65.2585V65.1875C8.21287 65.1875 8.42344 65.1875 8.63401 65.1875C8.84458 65.1875 8.98495 65.1875 9.05514 65.1875V65.2585C8.98495 65.6136 8.98495 66.0396 8.98495 66.5367V68.241L9.05514 70.7974C9.05514 71.4365 8.91476 71.9336 8.56382 72.2887C8.21287 72.7147 7.72155 72.8568 7.16003 72.9278L7.08984 72.7857Z" fill="#8294A2"/>
<path d="M12.7052 65.1172L13.9686 67.6026C14.4599 68.4547 14.8811 69.3779 15.4426 70.23C15.5829 69.946 15.7233 69.7329 15.8637 69.5199C16.0041 69.3069 16.0743 69.0938 16.2146 68.8808L17.4781 66.6084C17.5482 66.5374 17.6886 66.2534 17.829 65.9693C18.0396 65.6143 18.1799 65.4012 18.2501 65.1882H18.3905L18.8818 69.3069C18.952 69.7329 18.952 70.159 19.0222 70.6561C19.0924 71.1532 19.1626 71.5082 19.1626 71.7923C19.0222 71.7923 18.8818 71.7923 18.7415 71.7923C18.5309 71.7923 18.3905 71.7923 18.2501 71.7923L17.9694 68.3127C17.8992 67.8156 17.829 67.3896 17.829 66.8925L16.4954 69.3069L15.8637 70.301C15.7935 70.4431 15.7233 70.6561 15.5829 70.9401C15.4426 71.2242 15.3724 71.4372 15.232 71.7213H15.1618L14.6705 70.6561C14.5301 70.3721 14.3195 69.946 14.1792 69.5909C13.9686 69.1649 13.758 68.8098 13.5475 68.3837C13.3369 67.9577 13.0561 67.4606 12.8456 66.9635L12.4244 70.6561L12.3542 71.5793V71.7923C12.284 71.7923 12.284 71.7923 12.1437 71.7923C12.0735 71.7923 12.0033 71.7923 11.9331 71.7923C11.7927 71.7923 11.7225 71.7923 11.6523 71.7923V71.7213L12.0033 69.7329L12.4244 66.2534C12.4244 66.1114 12.4946 65.9693 12.4946 65.7563C12.4946 65.5433 12.5648 65.3302 12.5648 65.1172H12.7052Z" fill="#8294A2"/>
<path d="M24.1457 68.7388L23.0929 66.3244L22.04 68.7388H23.163H24.1457ZM23.4438 65.1172L26.111 71.4372L26.2514 71.7923C26.0408 71.7923 25.9004 71.7923 25.76 71.7923C25.5495 71.7923 25.3389 71.7923 25.2687 71.7923L25.1985 71.5082L24.7774 70.301L24.3563 69.1649H23.2332H21.9698C21.4785 70.3721 21.1977 71.2242 21.0574 71.7213C20.9872 71.7213 20.917 71.7213 20.7064 71.7213C20.6362 71.7213 20.4958 71.7213 20.3555 71.7213L23.3034 65.1172H23.4438Z" fill="#8294A2"/>
<path d="M28.4274 68.2424V65.0469H28.5677L33.2002 70.0887L33.2704 70.1597C33.2704 69.9467 33.2704 69.5916 33.2704 69.0945V66.041V65.2599V65.1889C33.481 65.1889 33.6214 65.1889 33.6916 65.1889C33.7617 65.1889 33.8319 65.1889 33.9021 65.1889C33.9021 65.1889 33.9021 65.2599 33.9021 65.3309C33.9021 65.4019 33.9021 65.4019 33.9021 65.4729L33.8319 66.3961L33.6916 68.6685V70.7988V71.864H33.5512C33.3406 71.5799 33.13 71.3669 32.9897 71.1539L31.4455 69.4496L28.8485 66.6091V67.5323V68.9525V69.7336V70.8698L28.9187 71.793C28.8485 71.793 28.7081 71.793 28.5677 71.793C28.4274 71.793 28.287 71.793 28.2168 71.793C28.287 71.2249 28.287 70.7988 28.287 70.5148L28.4274 68.2424Z" fill="#8294A2"/>
<path fill-rule="evenodd" clip-rule="evenodd" d="M73.4878 59.5067C69.0659 59.5067 64.644 59.5067 60.2922 59.5067C59.8711 59.5067 59.8711 59.5067 59.8711 59.0806C59.8711 58.5836 59.8711 58.0865 59.8711 57.5894C59.9413 56.9503 60.222 56.3822 60.7134 56.0271C60.9239 55.8851 61.2047 55.7431 61.4854 55.7431C62.1873 55.7431 62.8892 55.7431 63.5911 55.7431C63.8017 55.7431 63.8719 55.8141 63.8719 56.0271C63.8719 56.8083 63.8719 57.5894 63.8719 58.3705C63.8719 58.6546 63.9421 58.7256 64.2228 58.7256C65.8372 58.7256 67.5217 58.7256 69.1361 58.7256C69.4168 58.7256 69.487 58.6546 69.487 58.3705C69.487 58.0155 69.487 57.5894 69.487 57.2343C69.487 56.7373 69.0659 56.3822 68.5746 56.4532C67.8727 56.5242 67.8025 57.0213 67.8727 57.5184C67.8727 57.6604 68.013 57.6604 68.1534 57.6604C68.4342 57.6604 68.7149 57.6604 68.9957 57.6604C69.2063 57.6604 69.2063 57.8024 69.2063 57.9445C69.2063 58.0865 69.2063 58.2995 68.9957 58.2995C68.5044 58.2995 68.013 58.2995 67.5217 58.2995C67.3813 58.2995 67.1708 58.2285 67.1708 57.9445C67.1708 57.7314 67.1708 57.5184 67.1708 57.2343C67.1708 56.5952 67.4515 56.0982 68.013 55.7431C68.2938 55.6011 68.6448 55.459 68.9957 55.5301C69.4168 55.6721 69.838 55.8141 70.0485 56.2402C70.2591 56.6662 70.3293 57.0923 70.3293 57.5184C70.3293 57.8024 70.3293 58.0865 70.3293 58.3705C70.3293 58.5126 70.3995 58.5836 70.5399 58.5836C71.3119 58.5836 72.084 58.5836 72.8561 58.5836C73.0667 58.5836 73.0667 58.4415 73.0667 58.2995C73.0667 56.8083 73.0667 55.317 73.0667 53.8258C73.0667 53.4707 73.2772 53.1867 73.4878 52.9736C73.6282 52.8316 73.7686 52.7606 73.8388 52.5476C73.9089 52.4766 73.9791 52.4766 74.0493 52.4766C74.1195 52.4766 74.1195 52.6186 74.1195 52.6896C74.1195 53.6127 74.1195 54.4649 74.1195 55.388C74.1195 55.6721 74.1897 55.7431 74.4705 55.7431C75.7339 55.7431 76.9973 55.6721 78.1905 55.7431C78.752 55.7431 79.1731 56.0982 79.5241 56.5242C79.875 56.9503 79.8048 57.4474 79.8048 58.0155C79.8048 58.6546 79.8048 58.6546 80.4365 58.6546C80.8577 58.6546 81.2788 58.6546 81.7 58.6546C81.9105 58.6546 81.9807 58.5836 81.9807 58.3705C81.9807 57.5894 81.9807 56.8083 81.9807 56.0271C81.9807 55.8141 82.0509 55.7431 82.1913 55.7431C82.4018 55.7431 82.6124 55.7431 82.823 55.7431C83.0336 55.7431 83.1037 55.8141 83.1037 56.0271C83.1037 56.8083 83.1037 57.5894 83.1037 58.3705C83.1037 58.5836 83.1739 58.7256 83.4547 58.7256C83.946 58.7256 84.5075 58.7256 85.069 58.7256C85.42 58.7256 85.5604 58.5836 85.3498 58.2285C85.2094 58.0865 85.2094 57.9445 85.2094 57.8024C85.2094 57.5184 85.2094 57.3054 85.2094 57.0213C85.2094 56.4532 85.4902 56.1692 85.8411 55.8141C86.3324 55.317 87.0343 55.388 87.666 55.4591C88.0872 55.5301 88.5083 55.8141 88.7189 56.2402C88.9295 56.5952 89.14 57.0213 89.0698 57.5184C88.9996 58.0865 88.8593 58.6546 88.3679 58.9386C88.0872 59.0806 87.8064 59.2937 87.4555 59.3647C86.1921 59.6487 84.2268 59.4357 82.5422 59.5067C80.9279 59.5777 79.2433 59.5067 77.629 59.5067C76.2252 59.5067 74.8214 59.5067 73.4878 59.5067ZM76.3656 58.6546C77.0675 58.6546 77.7694 58.6546 78.4713 58.6546C78.6818 58.6546 78.752 58.5836 78.752 58.3705C78.752 58.1575 78.752 57.8734 78.752 57.6604C78.752 56.7373 78.1203 56.3822 77.4184 56.3112C76.3656 56.2402 75.3127 56.3112 74.2599 56.3112C74.0493 56.3112 73.9791 56.3822 73.9791 56.5952C73.9791 57.1633 73.9791 57.8024 73.9791 58.3705C73.9791 58.5836 74.0493 58.6546 74.2599 58.6546C74.9618 58.6546 75.6637 58.6546 76.3656 58.6546ZM61.8364 58.6546C62.1873 58.6546 62.5383 58.6546 62.8892 58.6546C63.0296 58.6546 63.0998 58.5836 63.0998 58.4415C63.0998 57.8024 63.0998 57.1633 63.0998 56.5952C63.0998 56.5242 63.0998 56.4532 62.9594 56.4532C61.9768 56.4532 61.696 56.4532 61.2047 56.5952C60.8537 56.7373 60.7134 57.0213 60.7134 57.3764C60.6432 57.7314 60.7134 58.0865 60.7134 58.4415C60.7134 58.5836 60.7836 58.6546 60.9239 58.6546C61.2047 58.6546 61.5556 58.6546 61.8364 58.6546ZM86.9642 58.5126C87.666 58.5836 88.0872 57.8735 88.1574 57.3764C88.1574 56.8793 87.666 56.2402 87.0343 56.2402C86.3324 56.2402 85.9113 56.8083 85.8411 57.3054C85.8411 57.8024 86.3324 58.5126 86.9642 58.5126Z" fill="#8294A2"/>
<path fill-rule="evenodd" clip-rule="evenodd" d="M33.9004 55.6735C33.9004 54.6793 33.9004 53.6141 33.9004 52.62C33.9004 52.407 33.9706 52.3359 34.1811 52.3359C34.3215 52.3359 34.5321 52.3359 34.6725 52.3359C34.883 52.3359 34.9532 52.407 34.9532 52.62C34.9532 54.4663 34.9532 56.2416 34.9532 58.0879C34.9532 58.4429 34.9532 58.4429 35.3042 58.4429C36.357 58.4429 37.3397 58.4429 38.3925 58.4429C38.6733 58.4429 38.7435 58.3719 38.6031 58.0879C38.3925 57.5908 38.4627 57.0937 38.6733 56.6677C38.8838 56.2416 39.1646 55.9575 39.5857 55.6735C40.077 55.4605 40.5684 55.4605 41.0597 55.5315C41.551 55.6025 41.902 55.9575 42.1827 56.3836C42.5337 56.8807 42.3933 57.8038 42.3231 58.0169C42.2529 58.3719 42.2529 58.3719 42.6039 58.3719C44.2884 58.3719 46.0431 58.3719 47.7277 58.3719C48.0084 58.3719 48.0786 58.3009 48.0786 58.0169C48.0786 57.4488 48.219 55.9575 46.1133 55.9575C45.4816 55.9575 44.8499 55.9575 44.2182 55.9575C44.0076 55.9575 43.8673 55.8865 43.8673 55.6025C43.8673 55.3894 43.9375 55.3184 44.148 55.3184C45.2009 55.3184 46.2537 55.3184 47.3065 55.3894C47.7979 55.3894 48.2892 55.6735 48.6401 56.1706C48.8507 56.4546 48.9209 56.7387 48.9911 57.0937C48.9911 57.4488 49.0613 57.8038 49.1315 58.1589C49.1315 58.3009 49.2017 58.3009 49.342 58.3009C49.9035 58.3009 50.4651 58.3009 51.0968 58.3009C51.7285 58.3009 51.0968 58.0169 51.0968 57.2357C51.0266 56.6677 51.3073 56.2416 51.6583 55.8865C52.0092 55.5315 52.5707 55.3894 53.0621 55.3894C53.6236 55.3894 54.1851 55.3894 54.7466 55.3894C55.0976 55.3894 55.4485 55.2474 55.6591 54.9634C55.7293 54.8924 55.7994 54.8924 55.7994 54.8924C55.8696 54.9634 55.7994 54.8924 55.8696 55.0344C55.5889 55.3894 55.3081 55.8155 54.8168 55.9575C54.2553 56.0996 53.764 56.0996 53.2726 56.0285C52.5707 56.0285 51.939 56.5256 52.0794 57.3068C52.0794 57.5198 52.2198 57.9459 52.29 58.0169C52.4304 58.1589 52.5707 58.3009 52.8515 58.3009C53.8341 58.3719 54.7466 58.3009 55.7293 58.3009C55.7994 58.3009 55.8696 58.3009 55.9398 58.3009C56.1504 58.3009 56.1504 58.4429 56.2206 58.585C56.2206 58.798 56.0802 58.869 55.9398 58.869C54.536 58.798 53.2024 58.869 51.7987 58.869C48.7805 58.869 45.7624 58.869 42.674 58.869C42.3231 58.869 41.9722 58.869 41.6212 59.082C41.2001 59.3661 40.7088 59.3661 40.2174 59.2951C39.9367 59.2241 39.6559 59.082 39.4453 58.94C39.305 58.869 39.2348 58.869 39.0944 58.869C37.5502 58.869 36.0061 58.869 34.5321 58.869C34.2513 58.869 34.1811 58.798 34.1811 58.514C33.9004 57.6618 33.9004 56.6677 33.9004 55.6735ZM41.6212 57.5198C41.6212 56.8097 41.0597 56.3126 40.428 56.3126C39.9367 56.3126 39.2348 56.8807 39.2348 57.4488C39.2348 58.2299 39.8665 58.727 40.428 58.727C41.2001 58.727 41.6212 58.1589 41.6212 57.5198Z" fill="#8294A2"/>
<path fill-rule="evenodd" clip-rule="evenodd" d="M2.10476 58.795C1.47305 58.795 0.841349 58.795 0.279835 58.795C0.139456 58.795 0.0692669 58.724 0.0692669 58.5819C0.0692669 58.1559 0.0692669 57.8718 0.0692669 57.3747C-0.000922363 56.6646 0.279835 56.1675 0.77116 55.7415C1.33267 55.1024 2.10476 55.1024 2.80665 55.2444C3.22778 55.3154 3.57873 55.5995 3.7893 55.9545C3.92968 56.1675 4.07006 56.3806 4.14024 56.5936C4.21043 57.0197 4.21043 57.3037 4.21043 57.6588C4.21043 57.9428 4.21043 58.2979 4.21043 58.5819C4.21043 58.724 4.14024 58.795 3.99987 58.795C3.36816 58.795 2.73646 58.795 2.10476 58.795ZM2.10476 58.1559C2.4557 58.1559 2.80665 58.1559 3.15759 58.1559C3.22778 58.1559 3.36816 58.1559 3.36816 58.0849C3.43835 57.6588 3.36816 57.1617 3.15759 56.8066C2.80665 56.3096 2.38551 56.0255 1.68362 56.2386C1.40286 56.3806 1.1923 56.5936 1.05192 56.8777C0.911538 57.2327 0.841349 57.5878 0.841349 57.9428C0.841349 58.0849 0.911538 58.1559 1.05192 58.1559C1.40286 58.1559 1.75381 58.1559 2.10476 58.1559Z" fill="#8294A2"/>
<path fill-rule="evenodd" clip-rule="evenodd" d="M29.8997 59.7199C30.0401 59.7199 30.6016 59.7199 30.742 59.6489C31.0228 59.5779 31.6545 59.2939 31.865 59.0808C32.0756 58.8678 32.2862 58.4417 32.3564 58.0867C32.4967 57.8026 32.4967 57.4476 32.4967 57.1635C32.4265 56.8795 32.2862 56.5244 32.216 56.3824C32.216 56.3114 32.1458 56.1694 32.216 56.1694C32.216 56.0984 32.3564 56.0273 32.4266 56.0273C32.4967 56.0273 32.6371 56.0984 32.6371 56.1694C32.9179 56.5954 33.0583 57.5186 32.9881 58.2287C32.9179 58.6548 32.7073 59.0808 32.5669 59.3649C32.4266 59.5779 32.0756 60.004 31.7948 60.217C31.4439 60.5011 31.0228 60.7141 30.5314 60.7141C30.3209 60.7141 29.9699 60.7141 29.8295 60.7141C29.1277 60.5721 28.6363 60.146 28.2854 59.933C28.0748 59.791 27.8642 59.5069 27.7239 59.2229C27.6537 59.0098 27.5133 58.7258 27.4431 58.5128C27.4431 58.3707 27.3729 58.1577 27.3027 58.0157C27.3027 57.7316 27.3729 57.2345 27.4431 56.8085C27.5133 56.5244 27.6537 56.1694 27.7941 56.0273C27.7941 56.0273 27.8642 56.0273 27.9344 56.0273C28.0046 56.0273 28.145 56.0984 28.145 56.2404C28.145 56.3824 28.0748 56.5954 28.0046 56.6664C27.9344 56.8795 27.9344 57.2345 27.9344 57.5186C27.8642 57.8736 28.0046 58.3707 28.145 58.5838C28.2854 58.7968 28.5661 59.2939 28.7767 59.4359C29.1978 59.5779 29.5488 59.6489 29.8997 59.7199Z" fill="#8294A2"/>
<path fill-rule="evenodd" clip-rule="evenodd" d="M22.25 55.6014C22.25 54.6072 22.25 53.6131 22.25 52.5479C22.25 52.3349 22.3202 52.2638 22.5308 52.2638C22.7413 52.2638 23.0923 52.1928 23.2326 52.3349C23.373 52.4769 23.3028 52.8319 23.3028 53.045C23.3028 54.8913 23.3028 56.7376 23.3028 58.5839C23.3028 58.9389 23.3028 58.9389 22.9519 58.9389C22.3202 58.9389 22.3202 58.9389 22.3202 58.2998C22.25 57.3767 22.25 56.5246 22.25 55.6014Z" fill="#8294A2"/>
<path fill-rule="evenodd" clip-rule="evenodd" d="M2.7373 53.6836C3.01805 53.6836 3.29881 53.8966 3.29881 54.1097C3.29881 54.3227 2.94786 54.6778 2.7373 54.6778C2.52673 54.6778 2.24597 54.3227 2.17578 54.1807C2.24597 53.9676 2.52673 53.6836 2.7373 53.6836Z" fill="#8294A2"/>
<path fill-rule="evenodd" clip-rule="evenodd" d="M30.7424 56.0283C30.7424 56.3124 30.3915 56.5964 30.2511 56.5964C30.0405 56.5964 29.7598 56.2414 29.7598 56.0283C29.7598 55.8153 29.9703 55.5312 30.3213 55.5312C30.602 55.5312 30.7424 55.7443 30.7424 56.0283Z" fill="#8294A2"/>
<path fill-rule="evenodd" clip-rule="evenodd" d="M62.3967 54.6768C62.3967 54.9608 62.1861 55.2449 61.9054 55.2449C61.6948 55.2449 61.4141 54.8898 61.4141 54.6768C61.4141 54.3927 61.6246 54.1797 61.9756 54.1797C62.3265 54.1797 62.3967 54.3217 62.3967 54.6768Z" fill="#8294A2"/>
<path fill-rule="evenodd" clip-rule="evenodd" d="M82.1211 54.68C82.1211 54.3249 82.2615 54.2539 82.6124 54.2539C82.9634 54.2539 83.1037 54.3959 83.1037 54.68C83.1037 54.964 82.823 55.2481 82.6124 55.2481C82.4018 55.1771 82.1211 54.893 82.1211 54.68Z" fill="#8294A2"/>
<path fill-rule="evenodd" clip-rule="evenodd" d="M67.9424 54.1797C68.2933 54.1797 68.4337 54.3217 68.4337 54.6768C68.4337 54.8898 68.1529 55.2449 67.8722 55.2449C67.6616 55.2449 67.3809 54.8898 67.3809 54.6768C67.451 54.3217 67.5914 54.1797 67.9424 54.1797Z" fill="#8294A2"/>
<path fill-rule="evenodd" clip-rule="evenodd" d="M1.47362 53.6836C1.75438 53.6836 2.03514 53.8966 2.03514 54.1807C2.03514 54.3937 1.68419 54.7488 1.47362 54.7488C1.26306 54.7488 0.912109 54.3937 0.912109 54.1807C0.912109 53.8966 1.19287 53.6836 1.47362 53.6836Z" fill="#8294A2"/>
<path fill-rule="evenodd" clip-rule="evenodd" d="M69.2765 54.1797C69.6274 54.1797 69.7678 54.3927 69.7678 54.6768C69.7678 54.8898 69.4169 55.1738 69.2765 55.1738C68.9957 55.1738 68.7852 54.8898 68.7852 54.6058C68.7852 54.3217 68.9255 54.1797 69.2765 54.1797Z" fill="#8294A2"/>
<path fill-rule="evenodd" clip-rule="evenodd" d="M48.2198 59.506C48.5708 59.506 48.7112 59.6481 48.7112 60.0031C48.7112 60.2161 48.3602 60.5002 48.2198 60.5002C47.9391 60.5002 47.7285 60.2161 47.7285 59.9321C47.7285 59.577 47.8689 59.435 48.2198 59.506Z" fill="#8294A2"/>
<path fill-rule="evenodd" clip-rule="evenodd" d="M63.3095 54.1797C63.5902 54.1797 63.8008 54.3927 63.8008 54.6768C63.8008 54.9608 63.5902 55.2449 63.3095 55.2449C63.0989 55.2449 62.8181 54.8898 62.8181 54.6768C62.7479 54.3927 62.9585 54.1797 63.3095 54.1797Z" fill="#8294A2"/>
<path fill-rule="evenodd" clip-rule="evenodd" d="M20.354 52.3363C20.1434 52.3363 20.0732 52.4073 20.0732 52.6203C20.0732 53.8275 20.0732 55.1057 20.0732 56.3129C20.0732 56.881 20.0732 57.4491 20.0732 57.9462C20.0732 58.1592 20.0732 58.2303 19.8627 58.3013C19.8627 58.3013 19.7925 58.3013 19.7223 58.3013H19.6521H18.7396C18.4589 58.3013 18.3887 58.1592 18.3887 57.9462C18.3887 57.5912 18.3887 57.3071 18.3887 56.952C18.3887 56.597 18.1781 56.2419 17.9675 55.9579C17.5464 55.4608 16.9147 55.3188 16.3532 55.2478C15.4407 55.1768 14.4581 55.2478 13.5456 55.2478C13.4754 55.2478 13.4052 55.2478 13.4052 55.3188C13.3351 55.4608 13.335 55.6738 13.335 55.8869C13.4052 56.0289 13.5456 55.9579 13.686 55.9579C14.5985 56.0289 15.5811 55.8159 16.4936 56.0999C17.1955 56.3129 17.5464 56.81 17.6166 57.4491C17.6166 57.5912 17.6166 57.8042 17.6166 57.9462C17.6166 58.3013 17.6166 58.3013 17.2656 58.3013C14.1071 58.3013 11.0188 58.3013 7.86029 58.3013C7.50934 58.3013 7.50934 58.3013 7.50934 57.9462C7.50934 57.1651 7.50934 56.3129 7.50934 55.5318C7.50934 55.3188 7.43915 55.2478 7.29877 55.2478C7.0882 55.2478 6.87764 55.2478 6.66707 55.2478C6.4565 55.2478 6.38631 55.3188 6.38631 55.5318C6.38631 56.81 6.38631 58.0882 6.38631 59.3664C6.38631 59.6505 6.38631 59.8635 6.17574 60.0766C6.03537 60.2186 5.75461 60.5026 5.40366 60.4316C4.91234 60.4316 4.63158 60.0766 4.35082 59.7215C4.21044 59.7215 4.14026 59.6505 4.14026 59.6505C4.07007 59.7215 3.92969 59.7925 3.92969 59.9345C3.92969 60.1476 4.07007 60.3606 4.14026 60.4316C4.42101 60.7867 4.77196 61.0707 5.26328 61.0707C5.8248 61.0707 6.24593 61.1417 6.73726 60.7157C7.15839 60.3606 7.43915 59.9345 7.43915 59.3664C7.43915 59.0114 7.43915 59.0114 7.86029 59.0114C10.0362 59.0114 12.1418 59.0114 14.3177 59.0114C16.4234 59.0114 18.4589 59.0114 20.5645 59.0114C21.2664 59.0114 21.1962 59.1534 21.1962 58.3723C21.2664 56.952 21.2664 54.3246 21.2664 52.4783C20.9857 52.1943 20.6347 52.3363 20.354 52.3363Z" fill="#8294A2"/>
</g>
<defs>
<clipPath id="clip0_2_2585">
<rect width="89" height="73" fill="white"/>
</clipPath>
</defs>
</svg>
